<?xml version="1.0" encoding="utf-8"?>
<!-- Generator: Adobe Illustrator 16.2.0, SVG Export Plug-In . SVG Version: 6.00 Build 0)  -->
<!DOCTYPE svg PUBLIC "-//W3C//DTD SVG 1.1//EN" "http://www.w3.org/Graphics/SVG/1.1/DTD/svg11.dtd">
<svg version="1.1" id="Layer_1" xmlns="http://www.w3.org/2000/svg" xmlns:xlink="http://www.w3.org/1999/xlink" x="0px" y="0px"
	 width="128px" height="128px" viewBox="0 0 128 128" enable-background="new 0 0 128 128" xml:space="preserve">
<path fill-rule="evenodd" clip-rule="evenodd" fill="#FFFFFF" d="M48,35.979L35.979,48L17.99,30.01L0,48V0h48L30.01,17.99L48,35.979
	z"/>
<path fill-rule="evenodd" clip-rule="evenodd" fill="#FFFFFF" d="M92.021,48L80,35.979L97.99,17.99L80,0h48v48l-17.99-17.99
	L92.021,48z"/>
<path fill-rule="evenodd" clip-rule="evenodd" fill="#FFFFFF" d="M80,92.021L92.021,80l17.989,17.99L128,80v48H80l17.99-17.99
	L80,92.021z"/>
<path fill-rule="evenodd" clip-rule="evenodd" fill="#FFFFFF" d="M35.979,80L48,92.021L30.01,110.01L48,128H0V80l17.99,17.99
	L35.979,80z"/>
</svg>
