<?xml version="1.0" encoding="utf-8"?>
<!-- Generator: Adobe Illustrator 16.2.0, SVG Export Plug-In . SVG Version: 6.00 Build 0)  -->
<!DOCTYPE svg PUBLIC "-//W3C//DTD SVG 1.1//EN" "http://www.w3.org/Graphics/SVG/1.1/DTD/svg11.dtd">
<svg version="1.1" id="Layer_1" xmlns="http://www.w3.org/2000/svg" xmlns:xlink="http://www.w3.org/1999/xlink" x="0px" y="0px"
	 width="22px" height="13px" viewBox="0 0 22 13" enable-background="new 0 0 22 13" xml:space="preserve">
<path fill-rule="evenodd" clip-rule="evenodd" fill="#FFFFFF" d="M4,9V4l5-4v12L4,9z M0.001,8.173c0-0.643,0-2.845,0-3.345
	s0.854-0.857,0.854-0.857h2.138V9.03H0.428C0.428,9.03,0.001,8.816,0.001,8.173z"/>
<path fill-rule="evenodd" clip-rule="evenodd" fill="#FFFFFF" d="M15.98,2.006c0.33-0.162,0.71,0.021,0.848,0.407
	c0,0,0.755,1.714,0.755,3.896c0,2.216-0.79,3.327-0.79,3.327c-0.092,0.404-0.447,0.645-0.793,0.538
	c-0.346-0.108-0.552-0.523-0.46-0.927c0,0,0.746-1.138,0.746-2.913c0-2.154-0.655-3.336-0.655-3.336
	C15.494,2.611,15.65,2.167,15.98,2.006z"/>
<path fill-rule="evenodd" clip-rule="evenodd" fill="#FFFFFF" d="M13.711,3.9c0.331-0.162,0.71,0.021,0.848,0.407
	c0,0,0.431-0.18,0.431,2.002c0,2.216-0.465,1.432-0.465,1.432c-0.092,0.405-0.447,0.645-0.793,0.538
	c-0.346-0.107-0.228-0.901-0.135-1.306l0.098-0.64L13.688,5.27C13.55,4.884,13.381,4.062,13.711,3.9z"/>
</svg>
