<?xml version="1.0" encoding="utf-8"?>
<!-- Generator: Adobe Illustrator 16.2.0, SVG Export Plug-In . SVG Version: 6.00 Build 0)  -->
<!DOCTYPE svg PUBLIC "-//W3C//DTD SVG 1.1//EN" "http://www.w3.org/Graphics/SVG/1.1/DTD/svg11.dtd">
<svg version="1.1" id="Layer_1" xmlns="http://www.w3.org/2000/svg" xmlns:xlink="http://www.w3.org/1999/xlink" x="0px" y="0px"
	 width="128px" height="128px" viewBox="0 0 128 128" enable-background="new 0 0 128 128" xml:space="preserve">
<path fill-rule="evenodd" clip-rule="evenodd" fill="#FFFFFF" d="M114.028,82.132H85.755c-7.809,0-14.138-6.332-14.138-14.138
	v-7.068c0-7.81,6.329-14.137,14.138-14.137h28.273c7.806,0,14.139,6.327,14.139,14.137v7.068
	C128.167,75.8,121.834,82.132,114.028,82.132z M114.028,62.693c0-3.903-3.165-7.068-7.067-7.068H92.823
	c-3.902,0-7.068,3.166-7.068,7.068v3.535c0,3.902,3.166,7.068,7.068,7.068h14.138c3.902,0,7.067-3.166,7.067-7.068V62.693z
	 M47.563,82.997c-1.468,0-2.165-0.337-3.247-0.972l-12.86-12.71c-1.052-0.622-3.083-3.917-3.083-4.79
	c0-0.875,2.031-4.17,3.083-4.792l12.86-13.06c1.615-0.953,2.94-1.243,5.048-0.723c2.108,0.511,3.481,2.946,3.481,4.294V78.45
	c0,1.349-1.373,3.782-3.481,4.294C48.668,82.919,48.291,82.997,47.563,82.997z M19.288,82.997c-1.467,0-2.165-0.337-3.246-0.972
	l-12.86-12.71c-1.051-0.622-3.083-3.917-3.083-4.79c0-0.875,2.032-4.17,3.083-4.792l12.86-13.06c1.616-0.953,2.94-1.243,5.049-0.723
	c2.107,0.511,3.481,2.946,3.481,4.294V78.45c0,1.349-1.374,3.782-3.481,4.294C20.393,82.919,20.016,82.997,19.288,82.997z"/>
</svg>
