<?xml version="1.0" encoding="utf-8"?>
<!-- Generator: Adobe Illustrator 16.2.0, SVG Export Plug-In . SVG Version: 6.00 Build 0)  -->
<!DOCTYPE svg PUBLIC "-//W3C//DTD SVG 1.1//EN" "http://www.w3.org/Graphics/SVG/1.1/DTD/svg11.dtd">
<svg version="1.1" id="Layer_1" xmlns="http://www.w3.org/2000/svg" xmlns:xlink="http://www.w3.org/1999/xlink" x="0px" y="0px"
	 width="128px" height="77.213px" viewBox="0 0 128 77.213" enable-background="new 0 0 128 77.213" xml:space="preserve">
<path id="volume" display="none" fill-rule="evenodd" clip-rule="evenodd" fill="#FFFFFF" d="M23.94,55.049V25.117L53.873,1.17
	v71.839L23.94,55.049z M0,50.101c0-3.85,0-17.03,0-20.024c0-2.993,5.115-5.129,5.115-5.129h12.798V55.23H2.558
	C2.558,55.23,0,53.947,0,50.101z"/>
<path id="low" display="none" fill-rule="evenodd" clip-rule="evenodd" fill="#FFFFFF" d="M85.183,24.095
	c2.044-0.996,4.393,0.129,5.248,2.512c0,0,1.895,6.226,1.895,10.484s-2.107,10.712-2.107,10.712
	c-1.896,2.861-2.768,3.98-4.908,3.316c-2.142-0.665-1.41-5.564-0.839-8.059c0,0,1.529-3.379,1.529-7.045
	S83.139,25.092,85.183,24.095z"/>
<path id="medium" fill-rule="evenodd" clip-rule="evenodd" fill="#FFFFFF" d="M99.225,12.405c2.042-0.996,4.393,0.128,5.248,2.511
	c0,0,4.672,10.582,4.672,24.048c0,13.673-4.886,20.53-4.886,20.53c-0.57,2.496-2.768,3.98-4.908,3.316
	c-2.141-0.666-3.416-3.226-2.845-5.722c0,0,4.616-7.023,4.616-17.978c0-13.295-4.053-20.587-4.053-20.587
	C96.214,16.141,97.178,13.401,99.225,12.405z"/>
<path id="high" display="none" fill-rule="evenodd" clip-rule="evenodd" fill="#FFFFFF" d="M112.841,0.155
	c2.143-0.656,4.336,0.835,4.9,3.332c0,0,9.455,17.736,9.455,35.477c0,17.326-8.336,34.417-8.336,34.417
	c-0.4,2.541-2.491,4.222-4.67,3.755c-2.18-0.465-3.622-2.903-3.222-5.443c0,0,8.206-15.306,8.206-32.582
	c0-17.789-9.192-33.243-9.192-33.243C109.419,3.369,110.699,0.812,112.841,0.155z"/>
<path id="mute" display="none" fill-rule="evenodd" clip-rule="evenodd" fill="#FFFFFF" d="M127.165,54.023l-8.465,8.465
	l-16.934-16.933L84.832,62.488l-8.465-8.465L93.3,37.09L76.367,20.157l8.465-8.465l16.934,16.933L118.7,11.691l8.465,8.465
	L110.23,37.09L127.165,54.023z"/>
</svg>
