<?xml version="1.0" encoding="utf-8"?>
<!-- Generator: Adobe Illustrator 17.0.0, SVG Export Plug-In . SVG Version: 6.00 Build 0)  -->
<!DOCTYPE svg PUBLIC "-//W3C//DTD SVG 1.1//EN" "http://www.w3.org/Graphics/SVG/1.1/DTD/svg11.dtd">
<svg version="1.1" id="Layer_1" xmlns="http://www.w3.org/2000/svg" xmlns:xlink="http://www.w3.org/1999/xlink" x="0px" y="0px"
	 width="40px" height="50px" viewBox="0 0 40.049 49.986" enable-background="new 0 0 40.049 49.986" xml:space="preserve">
<path fill-rule="evenodd" clip-rule="evenodd" fill="#ffffff" d="M37.892,21.062C35.998,19.748,6.737,0.801,6.737,0.801
	c-1.13-0.782-2.826-1.017-4.301-0.592C0.962,0.631,0,2.628,0,3.733v42.521c0,1.106,0.962,3.102,2.436,3.523
	c0.489,0.143,1.001,0.208,1.509,0.208c1.028,0,2.036-0.277,2.792-0.798c0,0,29.46-19.174,31.155-20.262
	c1.695-1.089,2.157-2.674,2.157-3.932C40.049,23.735,39.369,22.087,37.892,21.062z"/>
</svg>